<?xml version="1.0" encoding="iso-8859-1"?>
<!-- Generator: Adobe Illustrator 19.0.0, SVG Export Plug-In . SVG Version: 6.00 Build 0)  -->
<svg version="1.1" id="Layer_1" xmlns="http://www.w3.org/2000/svg" xmlns:xlink="http://www.w3.org/1999/xlink" x="0px" y="0px"
	 viewBox="0 0 512 512" style="enable-background:new 0 0 512 512;" xml:space="preserve">
<g>
	<path style="fill:#FFE100;" d="M426.667,324.267c0,117.76-102.4,175.787-157.013,179.2c0.853,0,2.56,0,3.413,0
		c98.987,0,179.2-80.213,179.2-179.2c0-48.64-19.627-93.013-51.2-124.587c5.12-50.347,8.533-100.693,8.533-151.04
		c0.853-12.8-9.387-24.747-23.04-27.307l0,0c-37.547-8.533-75.947-12.8-113.493-12.8c30.72,0,61.44,4.267,92.16,12.8l0,0
		c10.24,2.56,19.627,14.507,18.773,27.307c0,50.347-2.56,80.213-6.827,129.707"/>
	<path style="fill:#FFE100;" d="M401.067,324.267c0-75.947-63.147-179.2-162.133-179.2c-30.72,0-145.067,80.213-145.067,179.2
		s114.347,179.2,145.067,179.2C292.693,503.467,401.067,446.293,401.067,324.267"/>
</g>
<path style="fill:#FFFFFF;" d="M93.867,324.267c0-93.867,102.4-170.667,139.093-178.347C140.8,152.747,68.267,230.4,68.267,324.267
	S140.8,495.787,232.96,502.613C196.267,494.933,93.867,418.133,93.867,324.267"/>
<path style="fill:#FFA800;" d="M247.467,145.067c-0.853,0-2.56,0-3.413,0c95.573,3.413,157.013,104.107,157.013,179.2
	c0,117.76-102.4,175.787-157.013,179.2c0.853,0,2.56,0,3.413,0c98.987,0,179.2-80.213,179.2-179.2S346.453,145.067,247.467,145.067"
	/>
<path style="fill:#FFE100;" d="M170.667,163.84c-2.56-32.427-3.413-64-4.267-95.573c22.187-5.12,58.027-8.533,81.067-8.533
	s57.173,3.413,81.067,8.533c0,31.573-1.707,63.147-4.267,95.573c12.8,7.68,10.24-6.827,27.307,15.36l0,0
	c4.267-50.347,6.827-80.213,6.827-130.56c0.853-12.8-7.68-24.747-18.773-27.307l0,0c-62.293-17.067-125.44-17.067-185.173,0l0,0
	c-10.24,2.56-18.773,14.507-17.92,27.307c0,50.347,2.56,80.213,6.827,130.56C154.453,164.693,156.16,173.227,170.667,163.84"/>
<path style="fill:#FFFFFF;" d="M137.387,48.64c-0.853-12.8,7.68-24.747,18.773-27.307l0,0c29.867-8.533,60.587-12.8,91.307-12.8
	c-38.4,0-75.947,4.267-112.64,12.8l0,0c-12.8,2.56-23.893,14.507-23.04,27.307c0,50.347,2.56,100.693,8.533,150.187
	c7.68-7.68,15.36-14.507,23.893-20.48C139.947,128.853,137.387,98.987,137.387,48.64"/>
<path style="fill:#FFA800;" d="M360.96,21.333L360.96,21.333c-37.547-8.533-75.947-12.8-113.493-12.8
	c30.72,0,61.44,4.267,92.16,12.8l0,0c10.24,2.56,19.627,14.507,18.773,27.307c0,50.347-2.56,80.213-6.827,129.707
	c8.533,5.973,17.067,12.8,23.893,20.48l0,0C380.587,148.48,384,98.133,384,47.787C384.853,35.84,373.76,23.893,360.96,21.333"/>
<path d="M247.467,512c-103.253,0-187.733-84.48-187.733-187.733c0-11.947,0.853-23.893,3.413-35.84
	c0.853-4.267,5.12-7.68,10.24-6.827c4.267,0.853,7.68,5.12,6.827,10.24c-2.56,10.24-3.413,21.333-3.413,32.427
	c0,93.867,76.8,170.667,170.667,170.667s170.667-76.8,170.667-170.667S341.333,153.6,247.467,153.6
	c-62.293,0-120.32,34.133-150.187,89.6c-2.56,4.267-7.68,5.12-11.947,3.413c-4.267-2.56-5.973-7.68-3.413-11.947
	c33.28-60.587,96.427-98.133,165.547-98.133c103.253,0,187.733,84.48,187.733,187.733S350.72,512,247.467,512z"/>
<path d="M85.333,264.533c0-5.12-3.413-8.533-8.533-8.533c-5.12,0-8.533,3.413-8.533,8.533c0,5.12,3.413,8.533,8.533,8.533
	S85.333,269.653,85.333,264.533"/>
<path d="M153.6,419.84c-2.56,0-4.267-0.853-5.973-2.56C128,396.8,116.053,370.347,112.64,343.04
	c-0.853-5.12,1.707-9.387,6.827-10.24c5.12-0.853,9.387,2.56,9.387,7.68c3.413,24.747,13.653,46.933,30.72,64.853
	c3.413,3.413,3.413,8.533-0.853,11.947C157.867,418.987,155.307,419.84,153.6,419.84z"/>
<path d="M247.467,460.8c-17.067,0-33.28-3.413-48.64-9.387c-4.267-1.707-6.827-6.827-5.12-11.093s6.827-6.827,11.093-5.12
	c13.653,5.12,28.16,7.68,42.667,7.68c5.12,0,8.533,3.413,8.533,8.533C256,456.533,251.733,460.8,247.467,460.8z"/>
<path d="M184.32,430.933c0-5.12-3.413-8.533-8.533-8.533c-5.12,0-8.533,3.413-8.533,8.533s3.413,8.533,8.533,8.533
	C180.907,439.467,184.32,435.2,184.32,430.933"/>
<path d="M375.467,208.213c-2.56,0-4.267-0.853-5.973-2.56c-12.8-13.653-29.013-24.747-46.08-33.28
	c-3.413-1.707-5.12-5.12-4.267-8.533c2.56-30.72,4.267-59.733,5.12-87.893c-28.16-5.12-52.907-7.68-76.8-7.68
	s-50.347,2.56-76.8,6.827c0.853,27.307,2.56,56.32,5.12,87.893c0,3.413-1.707,6.827-4.267,8.533
	c-17.067,8.533-32.427,19.627-46.08,33.28c-2.56,2.56-5.973,3.413-8.533,1.707c-3.413,0-5.973-3.413-5.973-5.973
	c-5.12-51.2-8.533-102.4-8.533-151.04c-0.853-17.067,11.947-33.28,29.867-36.693c74.24-17.067,152.747-17.067,231.253,0
	c17.92,3.413,30.72,19.627,29.867,36.693c0,48.64-2.56,99.84-8.533,151.04c0,3.413-2.56,5.973-5.973,6.827
	C378.027,207.36,376.32,208.213,375.467,208.213z M337.067,159.573c11.947,5.973,22.187,13.653,32.427,22.187
	c3.413-45.227,5.973-89.6,5.973-133.12c0.853-9.387-6.827-17.067-16.213-18.773c-75.947-17.067-151.893-17.067-224.427,0
	c-8.533,1.707-16.213,10.24-15.36,17.92c0,44.373,2.56,88.747,6.827,133.12c10.24-8.533,20.48-15.36,32.427-22.187
	c-3.413-32.427-5.12-62.293-5.12-90.453c0-4.267,2.56-7.68,6.827-8.533c29.867-5.973,59.733-8.533,87.04-8.533
	s54.613,2.56,87.04,8.533c3.413,0.853,6.827,4.267,6.827,8.533C340.48,98.133,339.627,128,337.067,159.573z"/>
<g>
</g>
<g>
</g>
<g>
</g>
<g>
</g>
<g>
</g>
<g>
</g>
<g>
</g>
<g>
</g>
<g>
</g>
<g>
</g>
<g>
</g>
<g>
</g>
<g>
</g>
<g>
</g>
<g>
</g>
</svg>
